<?xml version="1.0" standalone="no"?>
<!DOCTYPE svg PUBLIC "-//W3C//DTD SVG 20010904//EN"
 "http://www.w3.org/TR/2001/REC-SVG-20010904/DTD/svg10.dtd">
<svg version="1.0" xmlns="http://www.w3.org/2000/svg"
 width="260.000000pt" height="260.000000pt" viewBox="0 0 260.000000 260.000000"
 preserveAspectRatio="xMidYMid meet">
<metadata>
Created by potrace 1.14, written by Peter Selinger 2001-2017
</metadata>
<g transform="translate(0.000000,260.000000) scale(0.100000,-0.100000)"
fill="#000000" stroke="none">
<path d="M0 1300 l0 -1300 1300 0 1300 0 0 1300 0 1300 -1300 0 -1300 0 0
-1300z m1845 1061 c51 -23 92 -71 101 -117 10 -52 -1 -123 -23 -153 -58 -79
-192 -82 -252 -5 -33 41 -28 76 14 98 41 23 47 57 13 80 -27 19 -48 20 -83 4
-53 -24 -75 -114 -57 -230 10 -65 13 -69 75 -127 93 -88 122 -155 121 -281 -1
-117 -25 -186 -90 -259 -58 -65 -174 -124 -276 -141 -71 -12 -294 -9 -328 4
-20 8 -114 -64 -118 -91 -2 -12 4 -24 15 -28 10 -5 146 -12 303 -16 220 -5
299 -11 345 -24 199 -56 297 -165 312 -345 19 -236 -129 -421 -387 -484 -247
-60 -655 -34 -811 51 -116 63 -157 171 -103 275 18 35 85 85 135 100 35 10 45
8 114 -22 54 -24 74 -37 70 -47 -11 -31 -17 -123 -11 -168 9 -56 53 -111 114
-137 94 -42 310 -41 424 2 145 54 213 186 159 306 -32 71 -58 76 -391 85 -226
5 -296 10 -340 24 -161 50 -229 189 -160 325 23 46 97 114 183 169 l67 44 -69
33 c-148 72 -218 196 -209 372 7 152 83 268 216 336 139 70 378 83 535 28 l53
-19 -1 101 c0 86 3 108 24 149 25 52 71 92 128 113 54 19 141 17 188 -5z"/>
<path d="M1182 1985 c-49 -41 -57 -91 -57 -360 0 -223 1 -243 21 -286 50 -107
161 -82 185 42 12 62 11 455 -1 520 -7 40 -18 61 -40 82 -38 34 -70 34 -108 2z"/>
</g>
</svg>
